#!OML:ASF E:\motion texture\Top Level 1\Subject 1\Session 1\male.ASF
:FULLY-SPECIFIED
:DEGREES
512
root -13.8788 17.9695 4.16256 185.328 -88.485 -179.123
lowerback -4.01363 -1.39658 -2.33506
upperback -4.62001 -1.89965 1.97285
thorax -2.3678 -0.901413 3.30664
lowerneck -3.65844 -1.94715 -8.49203
upperneck -22.1493 -1.68112 12.7364
head -5.79284 -1.40563 5.67928
rclavicle 5.71506e-015 -4.37326e-015
rhumerus 47.9425 -10.9993 -61.6436
rradius 116.837
rwrist -4.5175
rhand -30.8116 -28.0485
rfingers 7.12502
rthumb -4.10119 -57.9887
lclavicle 5.71506e-015 -4.37326e-015
lhumerus 59.7133 8.82383 63.0673
lradius 55.7443
lwrist 3.41641
lhand -25.5236 35.4129
lfingers 7.12502
lthumb 1.00583 65.3902
rfemur -30.5871 -2.70315 18.1425
rtibia 22.3803
rfoot -2.61253 -15.338
rtoes 8.32384
lfemur 2.64297 -3.39202 -22.6485
ltibia 16.7386
lfoot -12.7115 -3.05395
ltoes -8.71331
513
root -14.0222 17.9614 4.13758 184.401 -88.6013 -178.184
lowerback -4.07202 -1.41189 -2.34165
upperback -4.64645 -1.92041 1.94939
thorax -2.36161 -0.912272 3.28448
lowerneck -3.54344 -1.92156 -8.49037
upperneck -22.399 -1.64848 12.7422
head -5.89539 -1.40021 5.69351
rclavicle 1.09332e-014 -1.11319e-014
rhumerus 48.1654 -10.9942 -61.1385
rradius 116.523
rwrist -4.25773
rhand -30.7285 -27.8482
rfingers 7.12502
rthumb -4.02095 -57.79
lclavicle 1.09332e-014 -1.11319e-014
lhumerus 59.7073 8.89693 62.9971
lradius 56.4102
lwrist 3.55889
lhand -25.3891 35.3106
lfingers 7.12502
lthumb 1.13579 65.2874
rfemur -30.4459 -2.37017 18.1774
rtibia 21.5493
rfoot -2.41641 -15.213
rtoes 8.43886
lfemur 2.86026 -3.41901 -22.5071
ltibia 17.1759
lfoot -12.6412 -3.31797
ltoes -9.40124
514
root -14.1666 17.954 4.11186 182.836 -88.7226 -176.614
lowerback -4.12763 -1.42642 -2.34079
upperback -4.67388 -1.94033 1.92839
thorax -2.35822 -0.92285 3.26077
lowerneck -3.43487 -1.89923 -8.49137
upperneck -22.628 -1.62016 12.7475
head -5.99002 -1.39571 5.70721
rclavicle -4.47266e-016 1.07344e-014
rhumerus 48.3911 -10.9629 -60.6552
rradius 116.186
rwrist -4.00742
rhand -30.6343 -27.6512
rfingers 7.12502
rthumb -3.92999 -57.5947
lclavicle -4.47266e-016 1.07344e-014
lhumerus 59.7075 8.94175 62.9492
lradius 57.0804
lwrist 3.69111
lhand -25.2598 35.2165
lfingers 7.12502
lthumb 1.26061 65.1925
rfemur -30.2876 -2.02893 18.2255
rtibia 20.8093
rfoot -2.22322 -15.0929
rtoes 8.60452
lfemur 3.05002 -3.44629 -22.3433
ltibia 17.6625
lfoot -12.5217 -3.60984
ltoes -10.0794
515
root -14.3121 17.9472 4.08544 180.369 -88.8482 -174.148
lowerback -4.18014 -1.44043 -2.331
upperback -4.70154 -1.95978 1.90993
thorax -2.35703 -0.933389 3.23477
lowerneck -3.33437 -1.88006 -8.49525
upperneck -22.8375 -1.59579 12.7534
head -6.07679 -1.39207 5.72079
rclavicle 1.0958e-014 -1.59028e-014
rhumerus 48.6228 -10.9081 -60.1947
rradius 115.827
rwrist -3.76375
rhand -30.5346 -27.4553
rfingers 7.12502
rthumb -3.83374 -57.4005
lclavicle 1.0958e-014 -1.59028e-014
lhumerus 59.7146 8.95974 62.9205
lradius 57.7557
lwrist 3.81283
lhand -25.1391 35.1292
lfingers 7.12502
lthumb 1.37724 65.1045
rfemur -30.1128 -1.68325 18.2895
rtibia 20.1602
rfoot -2.03658 -14.9769
rtoes 8.82367
lfemur 3.21002 -3.47396 -22.1564
ltibia 18.2002
lfoot -12.3497 -3.92908
ltoes -10.7533
516
root -14.4585 17.941 4.05834 176.587 -88.9761 -170.374
lowerback -4.22895 -1.45391 -2.31159
upperback -4.73009 -1.97882 1.89459
thorax -2.35906 -0.943905 3.20669
lowerneck -3.23879 -1.86399 -8.49974
upperneck -23.0301 -1.57583 12.7567
head -6.15708 -1.38957 5.73293
rclavicle 7.57867e-015 -1.19271e-014
rhumerus 48.8604 -10.8311 -59.7564
rradius 115.448
rwrist -3.52608
rhand -30.4314 -27.2671
rfingers 7.12502
rthumb -3.73407 -57.2141
lclavicle 7.57867e-015 -1.19271e-014
lhumerus 59.7279 8.95143 62.909
lradius 58.4343
lwrist 3.91837
lhand -25.023 35.0509
lfingers 7.12502
lthumb 1.48932 65.0254
rfemur -29.9216 -1.33616 18.3719
rtibia 19.6005
rfoot -1.85403 -14.8618
rtoes 9.08821
lfemur 3.33776 -3.50259 -21.9452
ltibia 18.7918
lfoot -12.1208 -4.27479
ltoes -11.4243
